<mxfile host="app.diagrams.net" modified="2021-11-22T13:56:27.230Z" agent="5.0 (Windows NT 10.0; Win64; x64) AppleWebKit/537.36 (KHTML, like Gecko) Chrome/96.0.4664.45 Safari/537.36" etag="r3gp3hwO-a0WDOm1FcE7" version="15.8.3" type="github">
  <diagram name="Page-1" id="5d7acffa-a066-3a61-03fe-96351882024d">
    <mxGraphModel dx="1468" dy="812" grid="1" gridSize="10" guides="1" tooltips="1" connect="1" arrows="1" fold="1" page="1" pageScale="1" pageWidth="1100" pageHeight="850" background="#ffffff" math="0" shadow="0">
      <root>
        <mxCell id="0" />
        <mxCell id="1" parent="0" />
        <mxCell id="Uj_KpLAxuWunAC6QCavc-3" value="1" style="swimlane;fontStyle=0;childLayout=stackLayout;horizontal=1;startSize=30;horizontalStack=0;resizeParent=1;resizeParentMax=0;resizeLast=0;collapsible=1;marginBottom=0;fontSize=20;" vertex="1" parent="1">
          <mxGeometry x="340" y="90" width="140" height="100" as="geometry" />
        </mxCell>
        <mxCell id="Uj_KpLAxuWunAC6QCavc-4" value="สมัครสมาชิก" style="text;strokeColor=none;fillColor=none;align=center;verticalAlign=middle;spacingLeft=4;spacingRight=4;overflow=hidden;points=[[0,0.5],[1,0.5]];portConstraint=eastwest;rotatable=0;fontSize=20;" vertex="1" parent="Uj_KpLAxuWunAC6QCavc-3">
          <mxGeometry y="30" width="140" height="70" as="geometry" />
        </mxCell>
        <mxCell id="Uj_KpLAxuWunAC6QCavc-7" value="2" style="swimlane;fontStyle=0;childLayout=stackLayout;horizontal=1;startSize=30;horizontalStack=0;resizeParent=1;resizeParentMax=0;resizeLast=0;collapsible=1;marginBottom=0;fontSize=20;" vertex="1" parent="1">
          <mxGeometry x="270" y="290" width="140" height="100" as="geometry" />
        </mxCell>
        <mxCell id="Uj_KpLAxuWunAC6QCavc-8" value="แสดงข่าวสารของร้าน" style="text;strokeColor=none;fillColor=none;align=center;verticalAlign=middle;spacingLeft=4;spacingRight=4;overflow=hidden;points=[[0,0.5],[1,0.5]];portConstraint=eastwest;rotatable=0;fontSize=20;whiteSpace=wrap;" vertex="1" parent="Uj_KpLAxuWunAC6QCavc-7">
          <mxGeometry y="30" width="140" height="70" as="geometry" />
        </mxCell>
        <mxCell id="Uj_KpLAxuWunAC6QCavc-9" value="3" style="swimlane;fontStyle=0;childLayout=stackLayout;horizontal=1;startSize=30;horizontalStack=0;resizeParent=1;resizeParentMax=0;resizeLast=0;collapsible=1;marginBottom=0;fontSize=20;" vertex="1" parent="1">
          <mxGeometry x="590" y="425" width="140" height="100" as="geometry" />
        </mxCell>
        <mxCell id="Uj_KpLAxuWunAC6QCavc-10" value="แสดงรายการสินค้า" style="text;strokeColor=none;fillColor=none;align=center;verticalAlign=middle;spacingLeft=4;spacingRight=4;overflow=hidden;points=[[0,0.5],[1,0.5]];portConstraint=eastwest;rotatable=0;fontSize=20;whiteSpace=wrap;" vertex="1" parent="Uj_KpLAxuWunAC6QCavc-9">
          <mxGeometry y="30" width="140" height="70" as="geometry" />
        </mxCell>
        <mxCell id="Uj_KpLAxuWunAC6QCavc-11" value="ลูกค้า" style="rounded=0;whiteSpace=wrap;html=1;fontSize=20;align=center;" vertex="1" parent="1">
          <mxGeometry x="80" y="60" width="120" height="60" as="geometry" />
        </mxCell>
        <mxCell id="Uj_KpLAxuWunAC6QCavc-12" value="พนักงาน" style="rounded=0;whiteSpace=wrap;html=1;fontSize=20;align=center;" vertex="1" parent="1">
          <mxGeometry x="80" y="150" width="120" height="60" as="geometry" />
        </mxCell>
        <mxCell id="Uj_KpLAxuWunAC6QCavc-14" value="" style="endArrow=classic;html=1;rounded=0;fontSize=20;entryX=0;entryY=0.25;entryDx=0;entryDy=0;exitX=0;exitY=0;exitDx=0;exitDy=0;exitPerimeter=0;" edge="1" parent="1" source="Uj_KpLAxuWunAC6QCavc-8" target="Uj_KpLAxuWunAC6QCavc-11">
          <mxGeometry width="50" height="50" relative="1" as="geometry">
            <mxPoint x="50" y="320" as="sourcePoint" />
            <mxPoint x="560" y="380" as="targetPoint" />
            <Array as="points">
              <mxPoint x="50" y="320" />
              <mxPoint x="50" y="75" />
            </Array>
          </mxGeometry>
        </mxCell>
        <mxCell id="Uj_KpLAxuWunAC6QCavc-15" value="" style="endArrow=classic;html=1;rounded=0;fontSize=20;exitX=0.002;exitY=0.289;exitDx=0;exitDy=0;exitPerimeter=0;" edge="1" parent="1" source="Uj_KpLAxuWunAC6QCavc-8">
          <mxGeometry width="50" height="50" relative="1" as="geometry">
            <mxPoint x="269" y="340" as="sourcePoint" />
            <mxPoint x="80" y="178" as="targetPoint" />
            <Array as="points">
              <mxPoint x="30" y="340" />
              <mxPoint x="30" y="178" />
            </Array>
          </mxGeometry>
        </mxCell>
      </root>
    </mxGraphModel>
  </diagram>
</mxfile>
